<svg width="37" height="36" viewBox="0 0 37 36" fill="none" xmlns="http://www.w3.org/2000/svg">
<rect x="0.333252" width="36" height="36" rx="18" fill="#E9E9EB"/>
<rect x="7.83325" y="7.5" width="21" height="21" rx="10.5" fill="#51515B"/>
<path d="M15.7972 13.2691C15.7972 13.97 15.1896 14.5382 14.4402 14.5382C13.6908 14.5382 13.0833 13.97 13.0833 13.2691C13.0833 12.5682 13.6908 12 14.4402 12C15.1896 12 15.7972 12.5682 15.7972 13.2691Z" fill="white"/>
<path d="M13.2688 15.4711H15.5884V22.5H13.2688V15.4711Z" fill="white"/>
<path d="M19.3229 15.4711H17.0034V22.5H19.3229C19.3229 22.5 19.3229 20.2872 19.3229 18.9036C19.3229 18.0732 19.6065 17.2392 20.7379 17.2392C22.0165 17.2392 22.0088 18.3259 22.0029 19.1678C21.9951 20.2683 22.0137 21.3914 22.0137 22.5H24.3333V18.7903C24.3136 16.4215 23.6964 15.3301 21.6657 15.3301C20.4598 15.3301 19.7123 15.8775 19.3229 16.3729V15.4711Z" fill="white"/>
</svg>
