<svg width="37" height="36" viewBox="0 0 37 36" fill="none" xmlns="http://www.w3.org/2000/svg">
<rect x="0.666748" width="36" height="36" rx="18" fill="#E9E9EB"/>
<path d="M9.66675 14L15.1167 17.6333C16.3997 18.4886 17.0412 18.9163 17.7346 19.0825C18.3474 19.2293 18.9861 19.2293 19.5989 19.0825C20.2923 18.9163 20.9338 18.4886 22.2168 17.6333L27.6667 14M12.8667 25H24.4667C25.5869 25 26.1469 25 26.5747 24.782C26.9511 24.5903 27.257 24.2843 27.4488 23.908C27.6667 23.4802 27.6667 22.9201 27.6667 21.8V14.2C27.6667 13.0799 27.6667 12.5198 27.4488 12.092C27.257 11.7157 26.9511 11.4097 26.5747 11.218C26.1469 11 25.5869 11 24.4667 11H12.8667C11.7466 11 11.1866 11 10.7588 11.218C10.3824 11.4097 10.0765 11.7157 9.88474 12.092C9.66675 12.5198 9.66675 13.0799 9.66675 14.2V21.8C9.66675 22.9201 9.66675 23.4802 9.88474 23.908C10.0765 24.2843 10.3824 24.5903 10.7588 24.782C11.1866 25 11.7466 25 12.8667 25Z" stroke="#51515B" stroke-width="2" stroke-linecap="round" stroke-linejoin="round"/>
</svg>
