<svg width="36" height="36" viewBox="0 0 36 36" fill="none" xmlns="http://www.w3.org/2000/svg">
<rect width="36" height="36" rx="18" fill="#E9E9EB"/>
<path d="M24.604 18.7268L21.5654 15.0867C21.2574 14.6907 21.1034 14.4927 21.0227 14.2706C20.9513 14.0741 20.9218 13.8649 20.936 13.6563C20.952 13.4206 21.0452 13.1877 21.2315 12.7219L21.9422 10.9451C22.2179 10.2558 22.3558 9.91116 22.5936 9.68525C22.8032 9.48618 23.0658 9.3519 23.3499 9.29856C23.6723 9.23803 24.0324 9.32806 24.7526 9.50812L26.72 10C26.72 20 19.7203 27 9.71997 27L9.22835 25.0324C9.04828 24.3122 8.95825 23.952 9.01879 23.6297C9.07212 23.3456 9.2064 23.083 9.40547 22.8734C9.63138 22.6356 9.97604 22.4977 10.6653 22.222L12.2509 21.5878C12.7823 21.3752 13.048 21.2689 13.3129 21.2608C13.547 21.2536 13.7796 21.3013 13.992 21.4002C14.2322 21.512 14.4346 21.7144 14.8393 22.1191L17.9256 25.1569" stroke="#51515B" stroke-width="2" stroke-linecap="round" stroke-linejoin="round"/>
</svg>
